# xmcd
#
# Track frame offsets: 
#        183
#        29468
#        55373
#        78625
#        105983
#        132208
#        154225
#        209585
#
# Disc length: 3199 seconds
#
# Revision: 0
# Processed by: cddbd v1.4PL0 Copyright (c) Steve Scherf et al.
# Submitted via: ExactAudioCopy v0.95a4
#
DISCID=6b0c7d08
DTITLE=Rhinomen - Makin Tracks
DYEAR=1900
DGENRE=Blues
TTITLE0=Gloria
TTITLE1=Big Bertha
TTITLE2=You Don't Want Me (No More)
TTITLE3=Feelin' Paranoid
TTITLE4=How Can A Poorman
TTITLE5=Rhinoman
TTITLE6=What You Want (Ain't What You Get)
TTITLE7=Gloria II (Slow)
EXTD=
EXTT0=
EXTT1=
EXTT2=
EXTT3=
EXTT4=
EXTT5=
EXTT6=
EXTT7=
PLAYORDER=
